<svg xmlns="http://www.w3.org/2000/svg" width="80" height="80" viewBox="0 0 80 80"><path d="M0,0H80V80H0Z" fill="none"/><path d="M71.52,71.666c1.653-2.667,5.387-8.96,5.067-14.507-.853-13.707-13.333-16.533-25.28-22.453-11.253-5.6-11.52-13.547-11.52-13.547-1.173-12.32,12.48-10.72,12.48-10.72,7.947.267,12.32,8.427,12.32,8.427a22.585,22.585,0,0,1,2.4,8.427c.16.32.427,0,.533-.213s-.32-10.987-.32-11.627c0-.96-.267-1.173-.267-1.173s-4.107-4.32-14.72-4.8a18.947,18.947,0,0,0-9.28,1.813C39.307,13.106,36.48,16.466,36,22.013c-.907,9.813,8.64,15.413,12.267,17.013,9.92,4.427,15.947,6.027,20.64,10.88C75.2,56.413,74.4,62.813,72.533,68.679a26.8,26.8,0,0,1-1.173,2.613s-.213.427,0,.48a.767.767,0,0,0,.16-.107ZM28.693,43.293c-.373-.32-.96.747-.96.747-4.427,5.92-3.947,13.547-3.947,13.547,1.12,16.107,15.573,19.893,21.973,20.16,9.653.32,18.667-4.747,20.533-12.053,2.4-9.653-3.52-16-20.587-22.187-15.893-5.653-15.893-15.2-15.893-15.2a21.417,21.417,0,0,1,1.76-10.88,7.124,7.124,0,0,0,.267-.747c-.16-.16-.533.48-.533.48a13.28,13.28,0,0,0-1.067,1.707s-6.667,11.413-.64,20.16c0,0,4.107,6.453,16.747,11.04,13.28,4.853,16.16,9.92,16.267,14.56C62.72,67.719,59.573,76.253,49.44,77A21.3,21.3,0,0,1,26.453,58.866,26.677,26.677,0,0,1,28.32,44.573c.213-.533.533-1.12.373-1.28Z" transform="translate(-11.093 -4.413)" fill="#fff"/><path d="M85.793,59.947c0,1.013-.053,1.813-.107,3.2,0,.32.053,1.013-.373.96-.373,0-.533-.427-.533-.427a26.29,26.29,0,0,0-4.8-7.04c-6.347-6.4-16.373-5.867-16.373-5.867C52.513,50.72,45.26,60.587,45.26,60.587c-8.053,10.453-2.72,20.32-2.72,20.32.107.16.373.64.427.693s0,.16,0,.213c-.053.053-.053.053-.16.053-.053,0-.16-.16-.16-.16s-6.293-7.093.373-19.52c0,0,5.547-10.133,17.387-12.587,5.333-1.12,16.48-.693,24.053,7.253A4.1,4.1,0,0,1,85.793,59.947Z" transform="translate(-18.647 -22.934)" fill="#ff2323"/></svg>