<svg xmlns="http://www.w3.org/2000/svg" width="16.285" height="20" viewBox="0 0 16.285 20"><path d="M27.022,12.508a4.421,4.421,0,0,0,2.684,4.047A10.945,10.945,0,0,1,28.322,19.4c-.834,1.218-1.7,2.432-3.062,2.458-1.339.024-1.77-.794-3.3-.794s-2.009.769-3.277.819c-1.316.05-2.317-1.318-3.158-2.531-1.717-2.483-3.03-7.017-1.268-10.077A4.9,4.9,0,0,1,18.4,6.767c1.292-.025,2.511.869,3.3.869s2.271-1.075,3.829-.917A4.672,4.672,0,0,1,29.183,8.7a4.524,4.524,0,0,0-2.161,3.806M24.505,5.076a4.406,4.406,0,0,0,1.04-3.193A4.483,4.483,0,0,0,22.6,3.4a4.186,4.186,0,0,0-1.061,3.094,3.709,3.709,0,0,0,2.967-1.416" transform="translate(-13.421 -1.883)"/></svg>