<svg xmlns="http://www.w3.org/2000/svg" width="20.001" height="20" viewBox="0 0 20.001 20"><path d="M20.6,19.181A7,7,0,0,0,17.862,8.617,8,8,0,1,0,3.679,14.9L2.29,16.283A1.006,1.006,0,0,0,3,17.992H8.686a7,7,0,0,0,6.307,4h6a1.006,1.006,0,0,0,.71-1.709ZM8,14.993a6.627,6.627,0,0,0,.08,1H5.408l.35-.34a1,1,0,0,0,0-1.419A5.927,5.927,0,0,1,4,10a6,6,0,0,1,6-6,5.937,5.937,0,0,1,5.647,4h-.65a7,7,0,0,0-7,7Zm10.534,5,.05.05H14.993a5,5,0,1,1,3.538-1.459.978.978,0,0,0,0,1.409Z" transform="translate(-1.988 -1.99)" fill="#b1bcd0"/></svg>