<svg xmlns="http://www.w3.org/2000/svg" width="17.894" height="20" viewBox="0 0 17.894 20"><g transform="translate(0 0)"><g transform="translate(0 0)"><path d="M300.658,577.065c0,.581-.5.829-1.119.829h-1.118c-.618,0-1.119-.248-1.119-.829v-1.053a2.365,2.365,0,0,0-2.237-2.328h-2.237a2.366,2.366,0,0,0-2.237,2.328v1.053c0,.581-.5.829-1.118.829h-1.119c-.617,0-1.118-.248-1.118-.829v-8.487a.514.514,0,0,1,.163-.373l5.745-5.406a1.167,1.167,0,0,1,1.582,0l5.767,5.427a.514.514,0,0,1,.163.372Zm2.237-9.039a1.026,1.026,0,0,0-.326-.743l-7.044-6.663a2.338,2.338,0,0,0-3.165-.006l-7.03,6.595a1.023,1.023,0,0,0-.328.745v10.164A2,2,0,0,0,287.237,580h3.356a2,2,0,0,0,2.237-1.882v-1.053a1.12,1.12,0,0,1,2.237,0v1.053A2,2,0,0,0,297.3,580h3.355a2,2,0,0,0,2.237-1.882V568.026Z" transform="translate(-285 -560)" fill="#b1bcd0" fill-rule="evenodd"/></g></g></svg>