<svg xmlns="http://www.w3.org/2000/svg" width="64" height="64.003" viewBox="0 0 64 64.003"><g transform="translate(8)"><path d="M24,0h0A24,24,0,0,1,48,24V48H0V24A24,24,0,0,1,24,0Z" fill="none"/><path d="M22-1.5A23.528,23.528,0,0,1,45.5,22V38A7.509,7.509,0,0,1,38,45.5H6A7.509,7.509,0,0,1-1.5,38V22A23.528,23.528,0,0,1,22-1.5Zm16,40L38.5,22a16.5,16.5,0,0,0-33,0V38Z" transform="translate(2 2)" fill="#b1bcd0"/></g><rect width="64" height="8" rx="2" transform="translate(0 40)" fill="#b1bcd0"/><path d="M20,38h0a8,8,0,0,1-8-8V26H28v4A8,8,0,0,1,20,38Z" transform="translate(12.001 26.003)" fill="#b1bcd0"/></svg>