<svg width="24px" height="24px" viewBox="0 0 24 24" xmlns="http://www.w3.org/2000/svg">
  <path fill-rule="evenodd" d="M17,8 C17.5522847,8 18,8.44771525 18,9 L18,19 C18,20.6568542 16.6568542,22 15,22 L9,22 C7.34314575,22 6,20.6568542 6,19 L6,9 C6,8.44771525 6.44771525,8 7,8 L17,8 Z M16,10 L8,10 L8,19 C8,19.5522847 8.44771525,20 9,20 L15,20 C15.5522847,20 16,19.5522847 16,19 L16,10 Z M9,3 C9,2.44771525 9.44771525,2 10,2 L14,2 C14.5522847,2 15,2.44771525 15,3 L15,4 L19,4 C19.5522847,4 20,4.44771525 20,5 C20,5.55228475 19.5522847,6 19,6 L5,6 C4.44771525,6 4,5.55228475 4,5 C4,4.44771525 4.44771525,4 5,4 L9,4 L9,3 Z"/>
</svg>
