<svg xmlns="http://www.w3.org/2000/svg" width="20" height="24" viewBox="0 0 20 24"><g transform="translate(-131 -613)"><g transform="translate(97.739 613)"><path d="M52.957.793a1.766,1.766,0,0,0-.82-.65A1.707,1.707,0,0,0,51.449,0H35.073a1.707,1.707,0,0,0-.687.143,1.765,1.765,0,0,0-.82.65,1.7,1.7,0,0,0-.3.983V22.223a1.7,1.7,0,0,0,.3.984,1.764,1.764,0,0,0,.82.65,1.706,1.706,0,0,0,.687.143,1.848,1.848,0,0,0,1.3-.523l6.891-6.726,6.891,6.726a1.844,1.844,0,0,0,1.3.507,1.737,1.737,0,0,0,.688-.127,1.764,1.764,0,0,0,.82-.651,1.7,1.7,0,0,0,.3-.983V1.777A1.7,1.7,0,0,0,52.957.793Z" fill="#125be4"/></g><text transform="translate(141 625)" fill="#fff" font-size="6" font-family="SegoeUI, Segoe UI"><tspan x="-5.981" y="0">New</tspan></text></g></svg>