<svg xmlns="http://www.w3.org/2000/svg" width="20" height="24" viewBox="0 0 20 24"><g transform="translate(-155 -613)"><g transform="translate(121.739 613)"><path d="M52.957.793a1.766,1.766,0,0,0-.82-.65A1.707,1.707,0,0,0,51.449,0H35.073a1.707,1.707,0,0,0-.687.143,1.765,1.765,0,0,0-.82.65,1.7,1.7,0,0,0-.3.983V22.223a1.7,1.7,0,0,0,.3.984,1.764,1.764,0,0,0,.82.65,1.706,1.706,0,0,0,.687.143,1.848,1.848,0,0,0,1.3-.523l6.891-6.726,6.891,6.726a1.844,1.844,0,0,0,1.3.507,1.737,1.737,0,0,0,.688-.127,1.764,1.764,0,0,0,.82-.651,1.7,1.7,0,0,0,.3-.983V1.777A1.7,1.7,0,0,0,52.957.793Z" fill="#ff9416"/></g><path d="M14.6,18.028H9.38a.833.833,0,0,1-.828-.723L7.986,13.13a.5.5,0,0,1,.838-.433l.934.864a.5.5,0,0,0,.731-.038l1.116-1.317a.5.5,0,0,1,.766,0l1.121,1.317a.5.5,0,0,0,.723.043l.934-.864A.5.5,0,0,1,16,13.13L15.43,17.3A.833.833,0,0,1,14.6,18.028Z" transform="translate(153.009 606.972)" fill="#fff"/></g></svg>