<svg xmlns="http://www.w3.org/2000/svg" width="127.939" height="128" viewBox="0 0 127.939 128"><g transform="translate(-16.043 -114)"><path d="M71.918.489a.5.5,0,0,1,.062,0h0q1.494.186,2.967.44a.5.5,0,1,1-.17.985c-.965-.166-1.948-.312-2.921-.433a.5.5,0,0,1,.061-1Zm7.8,1.47a.5.5,0,0,1,.122.015l.231.059h0l.021.005.011,0,.012,0,.014,0,.008,0,.017,0h.005l.018,0h0l.018,0h0l.019,0h0l.021.006h0q1.25.327,2.479.7a.5.5,0,0,1-.292.956c-.937-.286-1.894-.554-2.843-.8a.5.5,0,0,1,.123-.985ZM87.262,4.4a.5.5,0,0,1,.183.035q.415.163.827.333h0l.02.008h0l.018.007.005,0,.017.007.006,0,.015.006.007,0,.014.006.008,0,.012.005.012,0,.01,0,.014.006.008,0,.016.007.006,0,.021.009h0q.87.36,1.727.746a.5.5,0,0,1-.412.911c-.894-.4-1.809-.788-2.721-1.147a.5.5,0,0,1,.183-.965ZM94.445,7.76a.5.5,0,0,1,.237.06c.366.2.728.4,1.09.61h0l.018.01,0,0,.016.009.006,0,.015.009.006,0,.014.008.009,0,.012.007.009.005L95.9,8.5l.009,0,.012.007.009.005.011.006.01.006.011.007.009.005.011.006.01.006.01.006.011.006.009.005.012.007.008,0,.012.007.007,0,.013.008.008,0,.013.008.006,0,.014.008.005,0,.015.009,0,0,.016.009,0,0,.017.01h0q.556.324,1.105.659a.5.5,0,1,1-.521.854c-.837-.51-1.7-1.008-2.556-1.478a.5.5,0,0,1,.241-.939ZM101.152,12a.5.5,0,0,1,.291.094q.6.435,1.195.884h0l.037.028,0,0,.017.013,0,0,.016.012,0,0,.015.012,0,0,.014.011.005,0,.014.01.005,0,.014.01.006,0,.013.01.006,0,.012.009.008.006.011.009.008.006.01.008.009.007.009.007.01.008.008.006.011.009.007.005.012.009.007.005.012.009.008.006.011.008.007.005.012.01,0,0,.014.011,0,0,.016.013h0q.408.315.811.636a.5.5,0,1,1-.623.782c-.767-.611-1.558-1.211-2.353-1.785a.5.5,0,0,1,.293-.905Zm6.128,5.037a.5.5,0,0,1,.339.132q.726.677,1.432,1.376h0l.068.067h0l.033.033h0l.237.237,0,0,.015.016h0l.016.016,0,0,.015.016h0l.015.016,0,0,.013.014,0,0,.014.014,0,0,.013.013,0,0,.012.012.006.006.011.012,0,0,.012.012,0,0,.012.012,0,0,.011.012.006.006.012.012,0,0,.012.012,0,0,.012.013,0,0,.012.012.006.006.011.011.005.005.012.012.005.005.012.012.005.005.011.011.006.006.012.012,0,0,.013.013,0,0,.005.006a.5.5,0,0,1-.716.7c-.685-.7-1.4-1.395-2.113-2.063a.5.5,0,0,1,.341-.866Zm5.456,5.758a.5.5,0,0,1,.382.177c.193.23.382.46.571.693h0l.014.017,0,0,.013.016,0,0,.011.014,0,.006.009.012.007.008.008.01.007.009.008.01.007.009.007.009.008.01.006.008.009.011.006.007.009.011.006.007.01.012,0,.006.011.014,0,0,.012.015,0,0,.012.015,0,0,.012.015,0,0,.013.017h0l.014.017h0l.014.017h0q.424.528.836,1.065l0,0,.009.012.006.007.007.009.007.01.006.008.009.011,0,.005.011.014,0,0,.012.016h0l.014.018h0l.112.146a.5.5,0,0,1-.8.6c-.593-.78-1.212-1.557-1.841-2.309a.5.5,0,0,1,.383-.821Zm4.7,6.39a.5.5,0,0,1,.421.229q.811,1.26,1.564,2.56a.5.5,0,0,1-.865.5c-.491-.848-1.009-1.7-1.539-2.52a.5.5,0,0,1,.42-.771Zm3.867,6.925a.5.5,0,0,1,.451.284l0,.006.006.013,0,.008.007.014,0,.008.006.013,0,.009.006.012.005.011.005.011.005.011,0,.01.006.014,0,.008.01.02h0l.01.022,0,0,.008.018,0,.006.007.015,0,.005.008.016,0,.006.007.016,0,.007.007.015,0,.007.007.015,0,.006.007.016,0,.007.007.015,0,.008.007.014,0,.008.007.014,0,.007.007.014,0,.007.007.014,0,.007.007.014,0,.008.006.013,0,.008.006.014,0,.008.006.013,0,.009.006.012,0,.01.006.012,0,.009.006.014,0,.008.006.014,0,.008.007.014,0,.008.007.016,0,.005.008.016,0,.006.007.015,0,.007.006.013,0,.009.008.018,0,0,.01.022,0,.007.007.015.006.012,0,.009.006.012,0,.01.006.013,0,.009.006.014,0,.008.007.016,0,.005.007.016,0,.006.007.015,0,.006.007.015,0,.006.007.015,0,.006.007.016,0,.006.007.016,0,.005.008.017,0,0,.008.018v0l.009.019v0l.009.019h0l.009.02h0q.359.789.7,1.589a.5.5,0,1,1-.921.389c-.381-.9-.789-1.808-1.212-2.692a.5.5,0,0,1,.451-.716Zm2.97,7.355a.5.5,0,0,1,.474.34q.472,1.421.88,2.873a.5.5,0,0,1-.963.268c-.265-.943-.556-1.893-.865-2.823a.5.5,0,0,1,.475-.658Zm2.023,7.67a.5.5,0,0,1,.49.4c.094.475.183.954.266,1.433v0l0,.021v0l0,.019v.006l0,.017v.008l0,.016,0,.01,0,.014,0,.01,0,.014,0,.011,0,.013,0,.011,0,.013,0,.011,0,.013,0,.011,0,.012,0,.012v.007l.01.058v.005l0,.016v.007l0,.015v.009l0,.015v.008l0,.015v.009l0,.016V53.4l0,.016v.007l0,.017v.006l0,.018v.006l0,.018V53.5l0,.018v.005l0,.018v0l0,.02h0l.018.111v.005l0,.016V53.7l0,.015v.009l0,.014,0,.011,0,.013,0,.01,0,.013,0,.011,0,.013,0,.011,0,.013,0,.011,0,.013,0,.012,0,.011,0,.014v.009l0,.019v0l0,.024h0l.016.1h0c.023.147.045.292.067.439a.5.5,0,0,1-.989.145c-.144-.97-.314-1.949-.5-2.91a.5.5,0,0,1,.491-.6ZM127.343,59a.5.5,0,0,1,.5.465q.033.477.06.955h0v.093h0v.022h0l.006.115h0v.167l0,.087v.2l0,.083v.2l0,.09v.166h0q0,.07,0,.141h0v.046h0v.023h0q.01.305.017.611a.5.5,0,1,1-1,.024c-.023-.981-.07-1.974-.138-2.951a.5.5,0,0,1,.464-.534Zm.065,7.934h.027a.5.5,0,0,1,.473.523q-.02.38-.045.758h0l0,.024v.18l0,.023h0l0,.024V69l0,.022v0l0,.05v.005l0,.02v.055l0,.019v.006l0,.02v0l0,.021v0q-.049.612-.11,1.22a.5.5,0,0,1-.995-.1c.1-.974.173-1.965.225-2.944A.5.5,0,0,1,127.409,66.93Zm-.913,7.88a.5.5,0,0,1,.493.587q-.036.2-.073.4h0l0,.022v.006l0,.018v.008l0,.016,0,.01,0,.013,0,.011,0,.012,0,.013,0,.01,0,.013,0,.01,0,.015v.007l0,.017V76l0,.019h0q-.169.887-.362,1.766v0l0,.02v0l0,.019v0l0,.018v0l0,.018v.005l0,.018v.006l0,.017,0,.007,0,.016,0,.009,0,.015,0,.01,0,.013,0,.012,0,.018,0,.017,0,.009,0,.015,0,.009,0,.015,0,.008,0,.016,0,.007,0,.017v.006l0,.019v0l0,.02v0l0,.02v0l0,.021v0l-.005.023h0l-.018.078a.5.5,0,0,1-.975-.224c.218-.955.417-1.928.591-2.893A.5.5,0,0,1,126.5,74.81Zm-1.891,7.7a.5.5,0,0,1,.477.65q-.165.527-.339,1.05h0l-.007.021v0l-.007.021h0l-.007.022h0l-.1.309v0l-.007.021v0l-.007.02v0l-.007.019v0l-.007.019v0l-.007.019v0l-.007.019v0l-.006.019v0l-.006.019v0l-.006.019v0l-.007.02v0l-.007.021h0l-.092.265h0l-.007.02v0l-.007.019v0l-.007.019v0l-.007.02v0l-.007.02v0l-.007.019v0l-.007.019v0l-.007.02v0l-.007.02v0l-.007.02h0l-.007.021h0l-.078.218v0l-.007.019v0l-.007.019v0l-.007.018v0l-.006.017,0,.007-.005.015,0,.007-.005.015,0,.008-.005.015,0,.008-.005.014,0,.009,0,.014,0,.009,0,.014,0,.009,0,.014,0,.009,0,.013,0,.011,0,.011,0,.012,0,.01,0,.013,0,.009-.006.015,0,.007-.033.089a.5.5,0,0,1-.939-.344c.337-.92.656-1.861.949-2.8A.5.5,0,0,1,124.6,82.513Zm-2.843,7.4a.5.5,0,0,1,.454.708l-.03.066v0l-.009.02h0l-.01.021v0l-.009.02v0l-.009.019,0,0-.009.019v0l-.009.019,0,0-.008.018,0,0-.008.017,0,.006-.008.017,0,.005-.008.017,0,0-.008.018,0,0-.008.018,0,0-.008.018,0,0-.008.018,0,0-.008.017,0,0-.008.017,0,0-.008.018,0,0-.008.018,0,0-.009.019v0l-.01.021h0l-.124.263v0l-.009.02v0l-.009.019v0l-.009.019v0l-.009.02v0l-.009.019,0,0-.009.018,0,0-.009.018,0,0-.008.018,0,0-.009.018,0,0-.009.018,0,0-.009.019v0l-.009.019,0,0-.009.019v0l-.01.02v0l-.01.021h0l-.009.02v0l-.127.261h0l-.01.021h0l-.01.021v0l-.009.019,0,0-.008.017,0,.006-.008.016,0,.005-.008.016,0,.005-.008.017,0,0-.008.016,0,.006-.008.016,0,.006-.008.015,0,.006-.008.016,0,.006-.007.015,0,.007-.007.015,0,.007-.008.015,0,.006-.008.016,0,.005-.008.016,0,.006-.008.015,0,.006-.007.015,0,.007-.007.014,0,.008-.006.012,0,.009-.007.013,0,.008-.021.043h0l-.01.021,0,.007-.007.014,0,.006-.007.015,0,.009-.006.012-.005.01-.006.011-.005.011-.005.01,0,.01-.006.012-.005.01-.005.011-.006.012,0,.009-.007.013,0,.008-.006.013,0,.008-.007.013,0,.007-.007.014,0,.006-.008.015,0,.006-.007.015,0,.007-.007.014,0,.006-.008.015,0,.005-.008.016,0,0-.008.017,0,.005-.008.017,0,0-.009.018v0l-.02.04h0l-.171.333a.5.5,0,0,1-.889-.459c.45-.871.885-1.764,1.293-2.655A.5.5,0,0,1,121.761,89.917Zm-3.749,6.99a.5.5,0,0,1,.426.762q-.194.313-.391.623h0l-.013.02h0l-.012.018,0,0-.01.016,0,0-.01.016,0,.005-.01.015,0,.005-.009.014,0,.007-.008.013,0,.008-.008.012-.006.009-.007.012-.006.009-.006.01-.007.011-.006.009-.007.011-.005.009-.007.011-.006.009-.007.011,0,.008-.008.012,0,.008-.008.012,0,.007-.008.013,0,.007-.008.013,0,.005-.01.015,0,0-.01.016,0,0-.011.017v0q-.483.747-.986,1.48a.5.5,0,1,1-.824-.566c.555-.808,1.1-1.64,1.614-2.473A.5.5,0,0,1,118.012,96.908Zm-4.592,6.469a.5.5,0,0,1,.39.813l-.12.148,0,0-.011.013-.009.01-.006.007-.013.016,0,0q-.866,1.063-1.776,2.088a.5.5,0,1,1-.748-.664c.651-.733,1.293-1.491,1.909-2.253A.5.5,0,0,1,113.421,103.377Zm-5.359,5.849a.5.5,0,0,1,.347.86l-.37.354,0,0-.015.014,0,0-.011.01-.007.007-.009.008-.009.008-.008.008-.009.009-.008.008-.009.008-.007.007-.01.01-.006.006-.011.011-.006.006-.011.011-.006.005-.011.011-.006.006-.012.011,0,0-.012.012,0,0-.013.012,0,0-.013.012,0,0-.013.012,0,0-.013.012,0,0-.013.012,0,0-.013.012,0,0-.013.013,0,0-.013.013,0,0-.013.013,0,0-.014.013,0,0-.014.013,0,0-.014.013,0,0-.015.014,0,0-.016.015,0,0-.016.015h0l-.017.016h0q-.2.188-.406.374h0l-.017.016h0l-.017.016h0l-.016.015,0,0-.016.014,0,0-.016.014,0,0-.015.014,0,0-.015.013,0,0-.014.013,0,0L107,111.4l0,0-.014.013,0,0-.014.013,0,0-.014.013,0,0-.014.013,0,0-.014.013,0,0-.014.013,0,0-.014.013,0,0-.014.013,0,0-.015.013,0,0-.014.013,0,0-.014.013,0,0-.014.013,0,0-.015.013,0,0-.014.013,0,0-.014.013,0,0-.014.012,0,0-.015.014,0,0-.015.014,0,0-.018.016h0l-.015.013,0,0-.032.029-.016.015,0,0-.016.014h0l-.012.011-.006.006-.012.011,0,0-.011.01-.007.006-.012.011-.005,0-.012.011-.006.005-.014.012,0,0-.014.013,0,0-.014.013,0,0-.014.012,0,0-.014.013,0,0-.015.013,0,0-.015.013,0,0-.015.013,0,0-.015.014,0,0-.016.014,0,0-.015.014,0,0-.016.014,0,0-.016.014h0l-.017.015h0l-.035.03a.5.5,0,1,1-.66-.752c.737-.646,1.468-1.319,2.173-2A.5.5,0,0,1,108.061,109.226Zm-6.043,5.14a.5.5,0,0,1,.3.9l-.027.02,0,0-.017.013h0l-.017.013,0,0-.017.013,0,0-.016.012,0,0-.016.012,0,0-.015.011,0,0-.015.011,0,0-.013.01-.006,0-.013.01-.006,0-.012.009-.007.005-.013.009-.007,0-.012.009-.008.006-.011.008-.008.006-.011.008-.008.006-.011.008L102,115.5l-.008.006-.011.008-.007.005-.012.009-.007.005-.012.009-.006,0-.014.01,0,0-.2.15h0l-.075.055h0l-.057.041h0l-.018.013h0l-.018.013h0l-.019.014h0l-.038.027h0q-.8.577-1.613,1.13a.5.5,0,1,1-.561-.828c.811-.55,1.62-1.127,2.4-1.714A.5.5,0,0,1,102.019,114.365Zm-6.634,4.349a.5.5,0,0,1,.248.935q-1.3.741-2.641,1.423a.5.5,0,1,1-.454-.891c.873-.444,1.748-.916,2.6-1.4A.5.5,0,0,1,95.385,118.714ZM88.26,122.2a.5.5,0,0,1,.193.961l-.4.163h0l-.021.009h0l-.018.007-.006,0-.016.006-.007,0-.015.006-.009,0-.013.005-.01,0-.012,0-.012,0-.009,0-.013.005-.008,0-.015.006-.006,0-.016.007,0,0-.018.007h0l-.02.008h0q-1.065.427-2.148.816a.5.5,0,0,1-.338-.941c.922-.331,1.849-.689,2.754-1.064A.5.5,0,0,1,88.26,122.2Zm-7.505,2.565a.5.5,0,0,1,.131.982l-.359.1h0l-.019.005h0l-.017,0-.006,0-.017,0-.007,0-.015,0-.009,0-.014,0-.008,0-.015,0-.008,0-.014,0-.01,0-.013,0-.012,0-.012,0-.012,0-.011,0-.013,0-.011,0-.014,0-.008,0-.017,0-.007,0-.022.006h0l-.072.019h0l-.022.006h0l-.02.005h-.005l-.019,0h0l-.019,0-.006,0-.018,0h-.006l-.017,0-.007,0-.017,0-.006,0-.018,0-.006,0-.018,0h0l-.019,0H79.9l-.02.005h0l-.022.005h0l-.191.048h0l-.022.006h0l-.021.005h0l-.02.005h0l-.02,0h0l-.019,0h0l-.019,0h0l-.019,0h0l-.02,0h0l-.022.005h0l-.022.005h0l-.143.035h0l-.021.005h0l-.019,0-.008,0-.016,0-.023.006-.024.006-.023.006-.024.006-.023.006-.024.006-.023.005-.024.006-.009,0-.015,0-.008,0-.016,0-.008,0-.014,0-.01,0-.017,0-.011,0-.019,0-.013,0-.01,0-.015,0-.008,0-.015,0-.008,0-.014,0-.009,0-.014,0-.009,0-.014,0-.009,0-.015,0-.009,0-.014,0-.01,0-.014,0-.008,0-.015,0-.007,0-.017,0h-.005l-.018,0h-.006l-.018,0h0l-.02,0h0l-.227.052h0l-.021,0h0l-.021,0h0l-.022,0h0l-.022.005h0l-.275.062a.5.5,0,0,1-.217-.976c.957-.213,1.921-.452,2.866-.71A.5.5,0,0,1,80.755,124.766Zm-7.768,1.6a.5.5,0,0,1,.07,1l-.6.082-.021,0h-.01l-.025,0-.024,0-.024,0-.025,0-.025,0H72.3l-.017,0-.026,0H72.25l-.022,0h0l-.1.013h0l-.023,0h0l-.021,0h0l-.02,0h0l-.02,0h0l-.021,0h0l-.022,0h0l-.023,0h0l-.2.024h0l-.023,0h0l-.022,0h0l-.025,0-.025,0-.024,0-.175.02-.025,0-.025,0-.024,0-.024,0-.025,0-.026,0-.026,0h0l-.1.011-.024,0-.025,0-.025,0-.024,0h-.006l-.018,0h-.007l-.018,0-.025,0-.026,0-.025,0h0l-.15.016-.025,0-.025,0-.026,0-.026,0h0c-.206.021-.413.042-.62.061a.5.5,0,0,1-.091-1c.977-.092,1.963-.208,2.933-.346A.5.5,0,0,1,72.987,126.369Zm-10.888.6h.015c.625.018,1.259.028,1.886.028.355,0,.715,0,1.07-.009a.5.5,0,0,1,.017,1c-.275,0-.552.007-.828.009H63.31l-.149,0h0l-.179,0h-.03l-.149,0h-.061l-.089,0H62.37l-.287-.008a.5.5,0,0,1,.017-1Zm-7.9-.724a.505.505,0,0,1,.077.006c.968.15,1.953.279,2.928.383a.5.5,0,0,1-.107.994q-1.4-.151-2.788-.361h0l-.024,0-.024,0-.025,0-.025,0-.025,0-.025,0h-.008l-.019,0-.01,0a.5.5,0,0,1,.077-.994Zm-7.747-1.7a.5.5,0,0,1,.138.02c.942.27,1.9.522,2.856.747a.5.5,0,0,1-.229.973l-.015,0-.023-.006-.016,0-.008,0-.017,0h-.006l-.019,0h0l-.021-.005h0l-.023-.006h0q-.8-.19-1.584-.4h0l-.023-.006h0l-.022-.006h0l-.021-.006h0l-.021-.006h0l-.02-.005h0l-.019-.005h0l-.019-.005h0l-.019-.005h-.005l-.019-.005h0l-.019-.005h0l-.047-.013h0l-.02-.006-.009,0-.014,0-.011,0-.012,0-.012,0-.011,0-.013,0-.01,0-.013,0-.01,0-.013,0-.01,0-.013,0-.009,0-.014,0-.008,0-.015,0-.008,0-.016,0-.007,0-.016,0h-.005l-.018-.005h0l-.02-.006h0l-.562-.158a.5.5,0,0,1,.138-.981Zm-7.471-2.663a.5.5,0,0,1,.2.041c.9.386,1.823.757,2.74,1.1a.5.5,0,0,1-.351.937h0l-.088-.033h0q-1.306-.491-2.585-1.037l0,0-.014-.006-.008,0-.012-.005-.011,0-.01,0-.013-.006-.008,0-.016-.007,0,0-.011,0a.5.5,0,0,1,.2-.959ZM31.9,118.3a.5.5,0,0,1,.253.069c.845.5,1.714.979,2.581,1.435a.5.5,0,0,1-.463.886c-.189-.1-.379-.2-.567-.3h0l-.019-.01,0,0-.017-.009-.006,0-.015-.008-.006,0-.015-.008-.007,0-.014-.007-.009,0-.011-.006-.011-.006-.009-.005-.012-.007-.008,0-.013-.007-.008,0-.014-.008-.006,0-.016-.009,0,0-.017-.009,0,0-.017-.009,0,0-.017-.009h0l-.019-.01h0l-.451-.248h0l-.082-.046h0l-.082-.046h0l-.323-.182,0,0-.016-.009,0,0-.015-.009-.006,0-.014-.008-.006,0-.013-.007-.009,0-.011-.007-.009-.005-.011-.006-.01-.006-.01-.006-.01-.006-.01-.006-.011-.006-.009-.005-.011-.006-.01-.005-.011-.007-.009-.005-.012-.007-.009,0-.013-.007-.008,0-.013-.007-.008,0-.013-.008-.008,0-.013-.007-.008,0-.014-.008-.006,0-.015-.009-.005,0-.017-.01,0,0-.018-.01,0,0-.019-.011h0l-.39-.227a.5.5,0,0,1,.255-.931Zm-6.578-4.435a.5.5,0,0,1,.3.1c.777.6,1.579,1.185,2.382,1.745a.5.5,0,0,1-.571.821l-.175-.122-.006,0-.014-.01-.006,0-.013-.009-.007-.005-.012-.009-.008-.006-.01-.007-.01-.007-.01-.007-.01-.007-.009-.006-.01-.007-.009-.007-.011-.007-.008-.006L27.1,116.3l-.008-.005-.012-.009-.007,0-.012-.009-.007-.005-.013-.009-.006,0-.013-.01-.006,0-.014-.01-.005,0-.014-.01-.006,0-.014-.01,0,0-.015-.01,0,0-.015-.011,0,0-.014-.01-.006,0-.013-.01-.006,0-.014-.01-.006,0-.013-.009-.006,0-.012-.009-.007-.005-.012-.009-.006,0-.014-.01,0,0-.014-.01,0,0-.014-.01-.006,0-.013-.01,0,0-.014-.01,0,0-.014-.01-.006,0-.013-.01-.006,0-.013-.01,0,0-.062-.045-.012-.009-.01-.007-.009-.007-.008-.006-.011-.008-.005,0-.014-.01-.006,0-.014-.01-.006,0-.013-.009-.007-.005-.012-.009-.006,0-.014-.01-.006,0-.014-.01-.006,0-.013-.01-.007,0-.013-.009-.006,0-.013-.01-.006,0-.013-.009-.007,0-.013-.009-.007,0-.013-.009-.006,0-.014-.01-.005,0-.014-.01,0,0-.015-.011,0,0-.015-.011,0,0-.016-.012,0,0-.016-.011,0,0-.016-.011,0,0-.016-.012,0,0-.016-.012,0,0-.016-.012,0,0-.017-.012,0,0-.018-.013h0l-.018-.013,0,0-.017-.013h0l-.016-.012,0,0L26,115.5h0l-.019-.014h0l-.193-.143,0,0-.017-.012h0l-.017-.013-.007-.005-.012-.009-.01-.007-.009-.007-.011-.008-.008-.006-.011-.008-.008-.006-.012-.009-.007-.005-.012-.009-.006,0-.012-.009-.007-.005-.012-.009-.006,0-.014-.01,0,0-.016-.012,0,0-.017-.012,0,0-.017-.013h0l-.018-.014h0q-.243-.183-.484-.369a.5.5,0,0,1,.305-.9Zm-5.976-5.217a.5.5,0,0,1,.352.145c.7.689,1.419,1.371,2.148,2.027a.5.5,0,0,1-.669.743l-.012-.011,0,0-.014-.013,0,0-.014-.012,0,0-.015-.014,0,0-.018-.016,0,0-.015-.014,0,0-.014-.012-.005,0-.012-.011-.007-.006-.01-.009-.008-.008L21,111.407,21,111.4l-.008-.007-.01-.009-.008-.007-.01-.009-.008-.007-.009-.008-.009-.008-.008-.008-.009-.009-.007-.007-.01-.009-.007-.007-.01-.009-.007-.007-.01-.009-.008-.007-.01-.009-.008-.008-.009-.008-.008-.008-.009-.008-.008-.007-.009-.009-.008-.007-.01-.009-.008-.007-.01-.009-.008-.007-.01-.009-.008-.007-.009-.009-.008-.008-.009-.008-.008-.007-.01-.009-.008-.007-.009-.009-.008-.007-.01-.009-.008-.007-.01-.009-.007-.006-.01-.01-.007-.007-.01-.009-.007-.007-.01-.009-.008-.007-.01-.009L20.559,111l-.009-.009-.008-.008-.009-.008-.008-.008-.01-.009-.008-.007-.01-.01-.007-.006-.01-.009-.008-.007-.009-.008-.009-.008-.008-.007-.01-.009-.006-.006-.011-.01,0,0-.03-.028h0l-.1-.094h0l-.033-.031h0l-.016-.015h0l-.014-.013,0,0-.014-.013,0,0-.015-.014,0,0-.014-.014,0,0-.014-.014,0,0-.016-.015h0l-.016-.015h0l-.016-.015h0l-.015-.014,0,0-.016-.015h0l-.017-.016h0q-.528-.5-1.044-1.01a.5.5,0,0,1,.352-.855Zm-5.284-5.918a.5.5,0,0,1,.393.191c.606.77,1.238,1.536,1.88,2.278a.5.5,0,1,1-.756.654q-.322-.372-.638-.749h0l-.014-.017h0l-.013-.016,0,0-.012-.015,0,0-.012-.014,0,0-.011-.013,0-.006-.01-.012-.006-.007-.009-.01-.007-.008-.008-.009-.008-.01-.007-.008-.009-.011-.006-.007-.011-.013,0,0-.013-.015,0,0-.015-.018h0q-.549-.66-1.08-1.335a.5.5,0,0,1,.393-.808ZM9.559,96.206a.5.5,0,0,1,.429.242c.505.839,1.038,1.678,1.582,2.493a.5.5,0,0,1-.832.555q-.6-.9-1.167-1.812h0l-.012-.019h0l-.01-.017,0,0-.01-.016,0,0-.009-.015,0-.006-.009-.014,0-.006L9.5,97.569l0-.007-.008-.014,0-.007-.008-.013,0-.008-.008-.013,0-.007-.008-.012-.005-.008-.007-.011-.006-.01-.006-.01-.007-.011-.006-.01-.007-.011L9.4,97.409,9.394,97.4l-.005-.009-.007-.012,0-.008-.007-.012-.005-.009-.008-.013,0-.007-.009-.014,0-.006-.01-.016,0,0-.01-.017,0,0L9.3,97.249v0l-.012-.019h0l-.16-.265a.5.5,0,0,1,.429-.757ZM5.9,89.167a.5.5,0,0,1,.458.3c.4.9.82,1.795,1.258,2.671a.5.5,0,0,1-.894.449q-.671-1.341-1.28-2.719a.5.5,0,0,1,.458-.7ZM3.154,81.726a.5.5,0,0,1,.479.357c.281.939.588,1.883.913,2.808a.5.5,0,1,1-.943.331q-.209-.6-.407-1.2h0l-.014-.044h0l-.007-.022h0l-.007-.022h0l-.007-.021h0l-.007-.022h0l-.071-.22v0l-.006-.019v0l-.005-.017,0-.006-.005-.016,0-.006-.005-.017,0-.006-.005-.016,0-.007,0-.015,0-.008,0-.015,0-.008,0-.015,0-.008,0-.014,0-.009,0-.013,0-.01,0-.013,0-.008,0-.015,0-.008,0-.015,0-.008,0-.014,0-.01,0-.013,0-.009,0-.014,0-.009,0-.014-.007-.022,0-.009,0-.014,0-.012,0-.011,0-.011,0-.012,0-.01,0-.013,0-.011,0-.012,0-.01,0-.013,0-.011,0-.012,0-.01,0-.013,0-.01,0-.012,0-.01,0-.012,0-.011,0-.012,0-.011,0-.013,0-.01,0-.013,0-.01,0-.014,0-.009,0-.015,0-.008,0-.016,0-.007-.005-.017,0-.006-.005-.018,0-.006L2.79,82.75v0l-.006-.02,0-.005L2.776,82.7l0-.008,0-.015,0-.009,0-.013,0-.01,0-.013,0-.01,0-.013,0-.01,0-.013,0-.01,0-.013,0-.01,0-.013,0-.01,0-.013,0-.01,0-.013,0-.011,0-.012,0-.011,0-.012,0-.012,0-.011,0-.012,0-.012,0-.011,0-.012,0-.011v0a.5.5,0,0,1,.479-.643ZM1.364,74a.5.5,0,0,1,.493.418c.161.967.347,1.943.553,2.9a.5.5,0,0,1-.978.21q-.064-.3-.125-.595h0l0-.023h0l0-.023h0q-.03-.149-.06-.3h0l0-.022h0l0-.023h0Q1.122,76,1.023,75.461h0l0-.022h0l0-.021v0l0-.02v0l0-.02v0l0-.02v0l0-.02v0l0-.019v0l0-.02v0l-.015-.083,0-.009,0-.012,0-.012,0-.011,0-.014,0-.01,0-.014,0-.009,0-.015,0-.009,0-.016v-.008l0-.017V75.03l0-.018v-.005l0-.02v0l0-.022h0c-.022-.127-.043-.252-.064-.38A.5.5,0,0,1,1.364,74ZM.553,66.108a.5.5,0,0,1,.5.48c.04.981.1,1.972.188,2.947a.5.5,0,0,1-1,.089c-.086-.992-.15-1.995-.191-3a.5.5,0,0,1,.48-.517ZM.72,58.175l.042,0a.5.5,0,0,1,.457.54c-.081.975-.14,1.967-.176,2.948a.5.5,0,0,1-1-.036q.009-.235.019-.47h0v-.023h0l.005-.112v-.188Q.122,59.913.192,59v0l0-.022v-.005l0-.02v-.105l0-.019v-.006l0-.024h0l0-.025v-.139A.5.5,0,0,1,.72,58.175Zm1.148-7.849a.5.5,0,0,1,.49.6c-.2.958-.384,1.935-.541,2.9a.5.5,0,1,1-.987-.16l.038-.232h0l0-.02v0l0-.017v-.008l0-.015,0-.009,0-.014,0-.011,0-.012,0-.012,0-.011,0-.013,0-.011,0-.013,0-.011,0-.014,0-.009,0-.016v-.008l0-.019v-.005l0-.022v0l.03-.172h0l0-.024h0q.159-.913.343-1.816h0l0-.023v0l0-.021v0l0-.02v0l0-.018V51.05l0-.017v-.007l0-.016,0-.008,0-.016,0-.008,0-.014,0-.01,0-.012,0-.012,0-.009.022-.106h0l0-.023h0l.014-.068A.5.5,0,0,1,1.868,50.326Zm2.123-7.643a.5.5,0,0,1,.472.664c-.321.926-.624,1.872-.9,2.812a.5.5,0,0,1-.959-.282l0-.006,0-.013,0-.009,0-.014,0-.009,0-.014,0-.009,0-.014,0-.009,0-.015,0-.007,0-.016,0-.006.005-.017v0l.006-.019v0l.025-.085v0l.006-.02v0l.006-.018v0l.005-.018,0-.005,0-.016,0-.008,0-.015,0-.008,0-.015,0-.008,0-.015,0-.008,0-.015,0-.009,0-.014,0-.008,0-.015,0-.008,0-.015,0-.008,0-.015,0-.009,0-.014,0-.009,0-.014,0-.009,0-.014,0-.009,0-.013,0-.011,0-.012,0-.012,0-.011,0-.012,0-.011,0-.013.006-.02,0-.013,0-.01,0-.013,0-.01,0-.013,0-.011,0-.012,0-.012,0-.011,0-.012,0-.011,0-.012,0-.011,0-.011,0-.012,0-.012,0-.011,0-.011,0-.012,0-.011,0-.012,0-.01,0-.013,0-.01,0-.014,0-.008,0-.015,0-.008.005-.016,0-.006.005-.017,0-.006.006-.019v0l.007-.022h0L3,44.593H3l.015-.047h0l.007-.023h0l.007-.023v0l.015-.046h0l.015-.047h0c.15-.466.3-.927.464-1.388A.5.5,0,0,1,3.991,42.683Zm3.066-7.315a.5.5,0,0,1,.448.722c-.435.878-.854,1.779-1.247,2.676a.5.5,0,0,1-.916-.4q.08-.183.161-.365h0l.009-.02v0l.008-.019v0l.008-.017,0,0,.007-.016,0-.006.007-.015,0-.007.006-.014,0-.007.006-.014,0-.008.006-.014,0-.008.006-.013,0-.009.006-.013,0-.008.006-.013,0-.009.006-.013,0-.009.005-.012,0-.01.005-.012,0-.009.006-.012,0-.009.006-.013,0-.008.006-.013,0-.009.006-.013,0-.009.006-.012,0-.01.005-.012,0-.007.022-.049,0-.01.007-.015,0-.007.007-.014,0-.007.006-.013,0-.008.006-.013,0-.009.006-.013,0-.008.006-.014,0-.008.006-.013,0-.008.006-.013,0-.009.006-.014,0-.007.007-.015,0-.006.007-.015,0-.006.007-.015,0-.007.007-.015,0-.006.007-.016,0-.005.007-.016,0-.005.008-.016,0,0,.008-.018v0l.009-.02h0l.009-.02h0q.34-.734.7-1.457A.5.5,0,0,1,7.056,35.368Zm3.957-6.875a.5.5,0,0,1,.416.776c-.541.817-1.07,1.658-1.572,2.5A.5.5,0,0,1,9,31.258q.658-1.1,1.359-2.177h0l.012-.018,0,0,.011-.018,0,0,.011-.017,0,0,.01-.015,0-.006.009-.014,0-.007.008-.013,0-.007.008-.012.006-.009.007-.01.007-.01.006-.009.007-.011.005-.008.008-.012,0-.006.009-.014,0,0,.011-.017h0l.077-.116A.5.5,0,0,1,11.013,28.493ZM15.8,22.164a.5.5,0,0,1,.379.826c-.638.744-1.268,1.513-1.871,2.285a.5.5,0,0,1-.79-.613q.357-.457.721-.907h0l.014-.018,0,0,.013-.016,0,0,.012-.015,0,0,.011-.013.005-.006.009-.011.007-.008.008-.01.007-.009.007-.009.009-.011.005-.007.01-.013,0,0,.012-.014,0,0,.012-.015,0,0,.013-.016,0,0,.014-.017h0q.489-.6.993-1.185A.5.5,0,0,1,15.8,22.164Zm5.53-5.687a.5.5,0,0,1,.336.87c-.726.659-1.445,1.344-2.139,2.036a.5.5,0,1,1-.706-.708l.083-.083,0,0,.015-.015.01-.01.007-.007q.656-.65,1.329-1.281h0l.052-.049h0l.085-.08,0,0,.052-.048.008-.007.009-.009.009-.009.008-.008.01-.009.007-.007.012-.011,0,0,.014-.013,0,0,.014-.013,0,0,.013-.012,0,0,.014-.013,0,0,.015-.013,0,0,.016-.015h0l.016-.015h0l.017-.015h0l.034-.032h0l.017-.016h0l.277-.253A.5.5,0,0,1,21.326,16.476Zm6.192-4.958a.5.5,0,0,1,.288.909c-.8.564-1.6,1.154-2.375,1.754a.5.5,0,1,1-.613-.79q.61-.473,1.233-.932h0l.016-.012,0,0,.014-.01.005,0,.013-.01.006,0,.012-.009.007-.005.012-.008.008-.006.01-.007.009-.007.01-.007.009-.007.009-.007.01-.007.009-.007.011-.008.007-.005.012-.009.007-.005.013-.009.006,0,.014-.01.006,0,.014-.01,0,0,.015-.011,0,0,.016-.011,0,0,.016-.012,0,0,.018-.013h0L26.4,12.2h0q.311-.226.625-.448h0l.019-.013h0l.018-.013h0l.018-.013h0l.016-.012,0,0,.015-.011,0,0,.014-.01.006,0,.014-.01.006,0,.012-.008.008-.006.011-.007.009-.007.009-.006.011-.008h0A.5.5,0,0,1,27.518,11.519ZM34.279,7.37a.5.5,0,0,1,.235.942c-.865.459-1.732.945-2.575,1.445a.5.5,0,0,1-.512-.859q1.023-.606,2.067-1.173h0l.042-.023h0l.021-.011h0l.02-.011h0l.02-.011h0l.02-.011h0l.021-.011h0l.02-.011h0l.382-.2A.5.5,0,0,1,34.279,7.37ZM41.506,4.1a.5.5,0,0,1,.177.968c-.916.347-1.836.721-2.736,1.111a.5.5,0,1,1-.4-.917l.193-.083h0l.02-.009h0l.019-.008,0,0L38.8,5.15l.007,0,.015-.006.007,0,.013-.006.01,0,.011,0,.013-.005.008,0,.015-.006.007,0,.017-.007,0,0,.02-.008h0q1.031-.439,2.078-.842h0l.02-.008h0l.018-.007.006,0L41.1,4.22l.008,0,.013,0,.011,0,.01,0,.013,0,.007,0,.016-.006h0l.153-.058A.5.5,0,0,1,41.506,4.1Zm7.58-2.338a.5.5,0,0,1,.117.986c-.953.229-1.913.485-2.853.759a.5.5,0,0,1-.28-.96q.325-.095.652-.186h0l.022-.006h0l.021-.006h0l.022-.006.023-.006.006,0,.018,0h0l.019-.005h.005l.019-.005h0l.021-.006h0L46.93,2.3h0l.022-.006h0c.668-.184,1.339-.357,2.016-.52A.5.5,0,0,1,49.085,1.761ZM56.9.393a.5.5,0,0,1,.055,1c-.975.108-1.959.241-2.926.4A.5.5,0,0,1,53.867.8c.326-.052.655-.1.983-.149h0Q55.843.507,56.844.4ZM64,0h1.532l.088,0h.143l.162,0h.049Q66.487.045,67,.069a.5.5,0,1,1-.046,1C65.976,1.023,64.982,1,64,1h0c-.71,0-1.43.012-2.138.036a.5.5,0,1,1-.033-1Q62.6.011,63.369,0H64Z" transform="translate(16 114)" fill="#010a1c"/><circle cx="55.5" cy="55.5" r="55.5" transform="translate(25 123)" fill="#010a1c"/><path d="M55.5,1a54.241,54.241,0,0,0-30.471,9.307A54.662,54.662,0,0,0,5.282,34.286a54.427,54.427,0,0,0,5.025,51.684,54.662,54.662,0,0,0,23.979,19.747,54.427,54.427,0,0,0,51.684-5.025,54.662,54.662,0,0,0,19.747-23.979,54.427,54.427,0,0,0-5.025-51.684A54.662,54.662,0,0,0,76.714,5.282,54.158,54.158,0,0,0,55.5,1m0-1A55.5,55.5,0,1,1,0,55.5,55.5,55.5,0,0,1,55.5,0Z" transform="translate(25 123)" fill="#f6f7f8"/><g transform="translate(63.231 161.231)"><rect width="6.668" height="33.339" rx="1.98" transform="translate(13.336)" fill="#fff"/><rect width="33.339" height="6.668" rx="1.98" transform="translate(0 13.336)" fill="#fff"/></g></g></svg>