<svg xmlns="http://www.w3.org/2000/svg" width="64" height="60" viewBox="0 0 64 60"><g transform="translate(-166 -163.231)"><path d="M39.837.516a.75.75,0,0,1,1.112.3l3.625,7.905a.75.75,0,0,0,.764.433L54.48,8.143a.75.75,0,0,1,.827.839l-1.064,8.444a.75.75,0,0,0,.464.789l8.361,3.37a.75.75,0,0,1,.306,1.163l-5.4,6.784a.75.75,0,0,0,0,.934l5.4,6.784a.75.75,0,0,1-.306,1.163l-8.361,3.37a.75.75,0,0,0-.464.789l1.064,8.444a.75.75,0,0,1-.827.839l-9.141-1.013a.75.75,0,0,0-.764.433l-3.625,7.905a.75.75,0,0,1-1.112.3L32.43,54.3a.75.75,0,0,0-.86,0l-7.408,5.183a.75.75,0,0,1-1.112-.3l-3.625-7.905a.75.75,0,0,0-.764-.433L9.52,51.857a.75.75,0,0,1-.827-.839l1.064-8.444a.75.75,0,0,0-.464-.789L.933,38.414a.75.75,0,0,1-.306-1.163l5.4-6.784a.75.75,0,0,0,0-.934l-5.4-6.784a.75.75,0,0,1,.306-1.163l8.361-3.37a.75.75,0,0,0,.464-.789L8.693,8.982a.75.75,0,0,1,.827-.839l9.141,1.013a.75.75,0,0,0,.764-.433L23.051.818a.75.75,0,0,1,1.112-.3L31.57,5.7a.75.75,0,0,0,.86,0Z" transform="translate(166 163.231)" fill="#125be4"/><path d="M.848,13.962a1.581,1.581,0,0,0,.172,2.23l7.806,6.692a1.571,1.571,0,0,0,1.027.381c.046,0,.094,0,.141-.006a1.576,1.576,0,0,0,1.084-.572L24.43,6.436a1.583,1.583,0,0,0-.218-2.228L21.768,2.2a1.584,1.584,0,0,0-2.226.218L9.266,14.926,5.136,11.388a1.586,1.586,0,0,0-2.23.172Z" transform="translate(185.506 182.543)" fill="#fff"/></g></svg>